<svg xmlns="http://www.w3.org/2000/svg" width="16.024" height="10.675" viewBox="0 0 16.024 10.675">
  <path id="Activity_icon" data-name="Activity icon" d="M1309.974,4807.962a1,1,0,0,1-.856-.484l-1.975-3.471h-2.154a1,1,0,1,1,0-2h2.72a1,1,0,0,1,.857.484l1.134,2.073,2.128-6.584a1,1,0,0,1,1.815-.2l2.452,4.206h2.917a1,1,0,1,1,0,2h-3.492a1,1,0,0,1-.864-.5l-1.614-2.769-2.116,6.545a1,1,0,0,1-.837.687A1.137,1.137,0,0,1,1309.974,4807.962Z" transform="translate(-1303.988 -4797.288)" fill="#bbc5d5"/>
</svg>
