<svg xmlns="http://www.w3.org/2000/svg" width="13" height="16.02" viewBox="0 0 13 16.02">
  <path id="Refresh_icon" data-name="Refresh icon" d="M1276.869,4804.468a6.457,6.457,0,1,1-5.1-7.339l-1.463-1.437a1.008,1.008,0,0,1,0-1.417.985.985,0,0,1,1.4,0l3,2.967a1.009,1.009,0,0,1,0,1.417l-3.008,3.037a.986.986,0,0,1-1.4,0,1.008,1.008,0,0,1,0-1.417l1.153-1.164a4.454,4.454,0,0,0-.954-.114,4.5,4.5,0,1,0,4.45,5h.05a1,1,0,1,1,2,0A.975.975,0,0,1,1276.869,4804.468Z" transform="translate(-1264 -4793.98)" fill="#bbc5d5"/>
</svg>
